<svg xmlns="http://www.w3.org/2000/svg" xmlns:xlink="http://www.w3.org/1999/xlink" width="220" height="75" viewBox="0 0 190 71">
  <defs>
    <clipPath id="clip-path">
      <rect id="Rectangle_29232" data-name="Rectangle 29232" width="220" height="75" transform="translate(168 1539)" fill="#fff" stroke="#707070" stroke-width="1"/>
    </clipPath>
  </defs>
  <g id="_0215_homepage_Hero3_eyebrow_Desktop" data-name="0215_homepage_Hero3_eyebrow_Desktop" transform="translate(-168 -1539)" clip-path="url(#clip-path)">
    <g id="Group_155446" data-name="Group 155446" transform="translate(21042.434 18826.902)">
      <g id="Group_155445" data-name="Group 155445">
        <path id="Union_1" data-name="Union 1" d="M11.827,46.108A24.531,24.531,0,0,1,4.024,28.1V12.629a2.331,2.331,0,0,1-1.447.514A2.8,2.8,0,0,1,0,10.173V4.867A2.8,2.8,0,0,1,2.577,1.9a2.33,2.33,0,0,1,1.447.514V1.659A1.662,1.662,0,0,1,5.684,0H9.933a1.662,1.662,0,0,1,1.661,1.659V1.9H43.253V1.659A1.661,1.661,0,0,1,44.913,0h4.25a1.662,1.662,0,0,1,1.66,1.659v.806a2.3,2.3,0,0,1,1.5-.568,2.787,2.787,0,0,1,2.549,2.971v5.306a2.786,2.786,0,0,1-2.549,2.97,2.3,2.3,0,0,1-1.5-.568V28.832a23.518,23.518,0,0,1-21.5,23.324q-.961.077-1.915.077A22.8,22.8,0,0,1,11.827,46.108ZM5.073,28.1a23.472,23.472,0,0,0,7.465,17.237,21.8,21.8,0,0,0,16.7,5.772A22.46,22.46,0,0,0,49.773,28.832V10.252c0-.026,0-.053,0-.079h0V4.867h0c0-.026,0-.053,0-.079V1.659a.611.611,0,0,0-.61-.609h-4.25a.611.611,0,0,0-.61.609V28.832a16.924,16.924,0,0,1-5.5,12.457,16.709,16.709,0,0,1-12.93,4.353c-8.6-.773-15.329-8.4-15.329-17.362V1.659a.611.611,0,0,0-.61-.609H5.684a.611.611,0,0,0-.611.609V4.135a3.4,3.4,0,0,1,.079.732H5.073v5.306h.079a3.4,3.4,0,0,1-.079.732Zm6.521.181c0,8.424,6.314,15.592,14.374,16.317A15.851,15.851,0,0,0,43.253,28.832V13.144H11.594ZM43.253,12.093V2.947H11.594v9.147Zm9.067,0a1.75,1.75,0,0,0,1.5-1.92V4.867a1.752,1.752,0,0,0-1.5-1.921,1.734,1.734,0,0,0-1.5,1.854v5.438A1.732,1.732,0,0,0,52.32,12.092ZM1.049,4.867v5.306a1.758,1.758,0,0,0,1.527,1.92,1.6,1.6,0,0,0,1.447-1.308V4.256a1.606,1.606,0,0,0-1.447-1.31A1.76,1.76,0,0,0,1.049,4.867ZM22.7,35.993a.445.445,0,0,1-.444-.445V19.173a.446.446,0,0,1,.444-.446H33.828a.446.446,0,0,1,.445.446V21.18a.445.445,0,0,1-.445.444H25.314v4.082h7.432a.445.445,0,0,1,.445.445V28.1a.445.445,0,0,1-.445.444H25.314v7a.445.445,0,0,1-.444.445Z" transform="translate(-20806.434 -17278.52)" stroke="rgba(0,0,0,0)" stroke-miterlimit="10" stroke-width="1"/>
      </g>
    </g>
  </g>
</svg>
